<?xml version="1.0" encoding="UTF-8"?>
<!DOCTYPE svg PUBLIC "-//W3C//DTD SVG 1.1//EN" "http://www.w3.org/Graphics/SVG/1.1/DTD/svg11.dtd">
<!-- Creator: CorelDRAW X8 -->
<svg xmlns="http://www.w3.org/2000/svg" xml:space="preserve" width="900" height="300" version="1.1" style="shape-rendering:geometricPrecision; text-rendering:geometricPrecision; image-rendering:optimizeQuality; fill-rule:evenodd; clip-rule:evenodd"
viewBox="0 0 900 300"
 xmlns:xlink="http://www.w3.org/1999/xlink">
 <defs>
  <style type="text/css">
   <![CDATA[
    .fil0 {fill:none}
    .fil2 {fill:#FEFEFE}
    .fil3 {fill:#BBBBBB}
    .fil1 {fill:#FEFEFE;fill-rule:nonzero}
    .fil4 {fill:#999}
   ]]>
  </style>
 </defs>
 <g id="Layer_x0020_1">
  <path class="fil4" d="M640 40c8,-8 19,-12 29,-12 11,0 22,4 30,12 8,8 12,19 12,29 0,10 -3,19 -10,27l20 20c1,1 1,4 0,5 -1,1 -4,1 -5,0l-20 -20c-8,7 -17,10 -27,10 -10,0 -21,-4 -29,-12 -8,-8 -12,-19 -12,-30 0,-10 4,-21 12,-29zm29 -5c-8,0 -17,3 -24,10 -7,7 -10,16 -10,24 0,9 3,18 10,25 7,7 16,10 24,10 9,0 18,-3 25,-10 7,-7 10,-16 10,-25 0,-8 -3,-17 -10,-24 -7,-7 -16,-10 -25,-10z"/>
  <path class="fil1" d="M126 48c0,0 0,0 0,1 0,0 0,1 0,1l0 54c1,0 2,1 2,1 3,3 4,6 4,9 0,4 -1,7 -4,9 -2,2 -5,4 -8,4 -4,0 -7,-2 -9,-4 -2,-1 -3,-3 -4,-5l-54 0c-1,2 -2,4 -4,5 -2,2 -5,4 -8,4 -4,0 -7,-2 -9,-4 -3,-2 -4,-5 -4,-9 0,-3 1,-6 4,-8l0 -1c2,-2 5,-3 9,-3 3,0 6,1 8,3 2,2 3,4 4,6l54 0c1,-2 2,-4 4,-6 2,-2 5,-3 8,-3l0 -6 -104 -11c-2,-1 -3,-1 -4,-3 -1,-1 -2,-2 -2,-4l0 -28c0,-1 1,-3 2,-4 1,-1 3,-2 4,-2l105 0 0 0 4 -16c0,-1 1,-3 2,-3 2,-1 3,-2 4,-2l8 0c1,0 3,2 3,4 0,2 -2,3 -3,3l-7 0 -5 18zm-3 62c-1,-1 -2,-1 -3,-1 -2,0 -3,0 -4,1 -1,1 -2,3 -2,4 0,2 1,3 2,4 1,1 2,2 4,2 1,0 2,-1 3,-2 1,-1 2,-2 2,-4 0,-1 -1,-3 -2,-4zm-79 0c-1,-1 -2,-1 -3,-1 -2,0 -3,0 -4,1l0 0c-1,1 -2,3 -2,4 0,2 1,3 2,4l0 0c1,1 2,2 4,2 1,0 2,-1 3,-2 1,-1 2,-2 2,-4 0,-1 -1,-3 -2,-4l0 0zm75 -21l0 -38 -103 0 0 27 103 11z"/>
  <path class="fil2" d="M173 36l104 0c2,0 3,1 5,2 1,2 1,3 1,5l0 64c0,2 0,3 -1,5 -2,1 -3,2 -5,2l-104 0c-2,0 -3,-1 -5,-2 -1,-2 -1,-3 -1,-5l0 -64c0,-2 0,-3 1,-5 2,-1 3,-2 5,-2zm0 43l103 0 0 -36 -103 0 0 36zm103 18l-103 0 0 10 103 0 0 -10z"/>
  <path class="fil3" d="M443 116l-27 0 0 27 27 0 0 -27zm-29 -7l32 0c2,0 4,2 4,5l0 32c0,2 -2,4 -4,4l-32 0c-3,0 -5,-2 -5,-4l0 -32c0,-3 2,-5 5,-5zm-55 -109l32 0c2,0 4,2 4,4l0 32c0,3 -2,5 -4,5l-32 0c-2,0 -4,-2 -4,-5l0 -32c0,-2 2,-4 4,-4zm-55 0l32 0c3,0 5,2 5,4l0 32c0,3 -2,5 -5,5l-32 0c-2,0 -4,-2 -4,-5l0 -32c0,-2 2,-4 4,-4zm110 0l32 0c2,0 4,2 4,4l0 32c0,3 -2,5 -4,5l-32 0c-3,0 -5,-2 -5,-5l0 -32c0,-2 2,-4 5,-4zm0 55l32 0c2,0 4,2 4,4l0 32c0,2 -2,4 -4,4l-32 0c-3,0 -5,-2 -5,-4l0 -32c0,-2 2,-4 5,-4zm-55 0l32 0c2,0 4,2 4,4l0 32c0,2 -2,4 -4,4l-32 0c-2,0 -4,-2 -4,-4l0 -32c0,-2 2,-4 4,-4zm-55 0l32 0c3,0 5,2 5,4l0 32c0,2 -2,4 -5,4l-32 0c-2,0 -4,-2 -4,-4l0 -32c0,-2 2,-4 4,-4zm0 54l32 0c3,0 5,2 5,5l0 32c0,2 -2,4 -5,4l-32 0c-2,0 -4,-2 -4,-4l0 -32c0,-3 2,-5 4,-5zm55 0l32 0c2,0 4,2 4,5l0 32c0,2 -2,4 -4,4l-32 0c-2,0 -4,-2 -4,-4l0 -32c0,-3 2,-5 4,-5zm29 -102l-26 0 0 27 26 0 0 -27zm-54 0l-27 0 0 27 27 0 0 -27zm109 0l-27 0 0 27 27 0 0 -27zm0 55l-27 0 0 26 27 0 0 -26zm-55 0l-26 0 0 26 26 0 0 -26zm-54 0l-27 0 0 26 27 0 0 -26zm0 54l-27 0 0 27 27 0 0 -27zm54 0l-26 0 0 27 26 0 0 -27z"/>
  <path class="fil3" d="M593 116l-136 0 0 27 136 0 0 -27zm-139 -7l142 0c2,0 4,2 4,5l0 32c0,2 -2,4 -4,4l-142 0c-2,0 -4,-2 -4,-4l0 -32c0,-3 2,-5 4,-5zm0 -109l142 0c2,0 4,2 4,4l0 32c0,3 -2,5 -4,5l-142 0c-2,0 -4,-2 -4,-5l0 -32c0,-2 2,-4 4,-4zm0 55l142 0c2,0 4,2 4,4l0 32c0,2 -2,4 -4,4l-142 0c-2,0 -4,-2 -4,-4l0 -32c0,-2 2,-4 4,-4zm139 -48l-136 0 0 27 136 0 0 -27zm0 55l-136 0 0 26 136 0 0 -26z"/>
 </g>
</svg>
