<?xml version="1.0" encoding="UTF-8"?><!DOCTYPE svg PUBLIC "-//W3C//DTD SVG 1.1//EN" "http://www.w3.org/Graphics/SVG/1.1/DTD/svg11.dtd"><svg xmlns="http://www.w3.org/2000/svg" xml:space="preserve" version="1.1" style="shape-rendering:geometricPrecision; text-rendering:geometricPrecision; image-rendering:optimizeQuality; fill-rule:evenodd; clip-rule:evenodd" viewBox="0 0 50 50" xmlns:xlink="http://www.w3.org/1999/xlink"><path fill="#555555" d="M12.34 14.52l25.32 0c0.32,0 0.6,0.13 0.81,0.33 0.21,0.21 0.34,0.5 0.34,0.81l0 18.68c0,0.31 -0.13,0.6 -0.34,0.8 -0.21,0.21 -0.49,0.34 -0.81,0.34l-25.32 0c-0.32,0 -0.6,-0.13 -0.81,-0.33l0 -0.01c-0.21,-0.2 -0.34,-0.49 -0.34,-0.8l0 -18.68c0,-0.31 0.13,-0.6 0.34,-0.81 0.21,-0.2 0.49,-0.33 0.81,-0.33l0 0zm25.32 0.89l-25.32 0c-0.07,0 -0.14,0.03 -0.18,0.08 -0.05,0.04 -0.08,0.1 -0.08,0.17l0 18.68c0,0.07 0.03,0.13 0.08,0.18 0.04,0.04 0.11,0.07 0.18,0.07l25.32 0c0.07,0 0.13,-0.03 0.18,-0.08 0.05,-0.04 0.08,-0.11 0.08,-0.17l0 -18.68c0,-0.06 -0.03,-0.13 -0.08,-0.18 -0.04,-0.04 -0.11,-0.07 -0.18,-0.07l0 0z"/> <path fill="#555555" d="M11.85 14.63l12.29 12.29c0.24,0.24 0.55,0.36 0.86,0.36 0.31,0 0.62,-0.12 0.86,-0.36l12.29 -12.29c0.12,0.06 0.23,0.13 0.32,0.22 0.15,0.16 0.26,0.35 0.31,0.57l-12.22 12.21c-0.43,0.43 -1,0.65 -1.56,0.65 -0.56,0 -1.13,-0.22 -1.56,-0.65l-12.22 -12.21c0.05,-0.22 0.16,-0.41 0.31,-0.57 0.09,-0.09 0.2,-0.16 0.32,-0.22z"/></svg>