<?xml version="1.0" encoding="UTF-8"?><!DOCTYPE svg PUBLIC "-//W3C//DTD SVG 1.1//EN" "http://www.w3.org/Graphics/SVG/1.1/DTD/svg11.dtd"><svg xmlns="http://www.w3.org/2000/svg" xml:space="preserve" style="shape-rendering:geometricPrecision; text-rendering:geometricPrecision; image-rendering:optimizeQuality; fill-rule:evenodd; clip-rule:evenodd" viewBox="0 0 50 50" xmlns:xlink="http://www.w3.org/1999/xlink">  <path fill="#555555" d="M23.92 20l0 0.01 0 3.48 5.47 0c0.4,0 0.72,0.32 0.72,0.71 0,0.4 -0.32,0.72 -0.72,0.72l-5.47 0 0 10.71c0,0.4 -0.32,0.72 -0.72,0.72 -0.39,0 -0.71,-0.32 -0.71,-0.72l0 -10.71 -1.88 0c-0.4,0 -0.72,-0.32 -0.72,-0.72 0,-0.39 0.32,-0.71 0.72,-0.71l1.88 0 0 -3.48 0 -0.01 0 -0.02 0 -0.02c0.01,-1.54 0.64,-2.93 1.65,-3.94 1.02,-1.03 2.43,-1.65 3.98,-1.65 0.23,0 0.48,0.01 0.73,0.05 0.25,0.03 0.5,0.08 0.72,0.14 0.39,0.1 0.61,0.49 0.51,0.87 -0.1,0.38 -0.49,0.61 -0.87,0.51 -0.19,-0.05 -0.37,-0.09 -0.54,-0.11 -0.17,-0.02 -0.35,-0.04 -0.55,-0.04 -1.16,0 -2.22,0.47 -2.97,1.23 -0.76,0.76 -1.23,1.8 -1.23,2.96l0 0.02z"/></svg>