<?xml version="1.0" encoding="UTF-8"?><!DOCTYPE svg PUBLIC "-//W3C//DTD SVG 1.1//EN" "http://www.w3.org/Graphics/SVG/1.1/DTD/svg11.dtd"><svg xmlns="http://www.w3.org/2000/svg" xml:space="preserve" width="50" height="50" style="shape-rendering:geometricPrecision; text-rendering:geometricPrecision; image-rendering:optimizeQuality; fill-rule:evenodd; clip-rule:evenodd" viewBox="0 0 50 50" xmlns:xlink="http://www.w3.org/1999/xlink"><path fill="#555555" d="M19.73 18.13c0,-0.39 0.32,-0.71 0.72,-0.71 0.39,0 0.71,0.32 0.71,0.71l0 1.83c0.25,-0.36 0.52,-0.69 0.83,-1l0.04 -0.04c1.41,-1.42 3.37,-2.29 5.53,-2.29 2.16,0 4.12,0.87 5.54,2.29 1.41,1.42 2.29,3.37 2.29,5.54l0 10.63c0,0.39 -0.32,0.71 -0.71,0.71 -0.39,0 -0.71,-0.32 -0.71,-0.71l0 -10.63c0,-1.77 -0.72,-3.38 -1.88,-4.53 -1.16,-1.16 -2.76,-1.88 -4.53,-1.88 -1.77,0 -3.37,0.72 -4.53,1.88l-0.03 0.03c-1.14,1.15 -1.84,2.74 -1.84,4.5l0 10.63c0,0.39 -0.32,0.71 -0.71,0.71 -0.4,0 -0.72,-0.32 -0.72,-0.71l0 -10.63 0 -6.33zm-3.84 -3.36c0.39,0 0.71,0.32 0.71,0.71 0,0.4 -0.32,0.72 -0.71,0.72 -0.4,0 -0.71,-0.32 -0.71,-0.72 0,-0.39 0.31,-0.71 0.71,-0.71zm-0.71 3.36c0,-0.39 0.31,-0.71 0.71,-0.71 0.39,0 0.71,0.32 0.71,0.71l0 16.96c0,0.39 -0.32,0.71 -0.71,0.71 -0.4,0 -0.71,-0.32 -0.71,-0.71l0 -16.96z"/></svg>