<?xml version="1.0" encoding="UTF-8"?><!DOCTYPE svg PUBLIC "-//W3C//DTD SVG 1.1//EN" "http://www.w3.org/Graphics/SVG/1.1/DTD/svg11.dtd"><svg xmlns="http://www.w3.org/2000/svg" xml:space="preserve" version="1.1" style="shape-rendering:geometricPrecision; text-rendering:geometricPrecision; image-rendering:optimizeQuality; fill-rule:evenodd; clip-rule:evenodd" viewBox="0 0 50 50" xmlns:xlink="http://www.w3.org/1999/xlink"><path fill="#ffffff"  d="M14.97 9.95l12.6 0 0.21 0 0.14 0.15 8.32 8.31 0.15 0.15 0 0.21 0 19.92c0,0.38 -0.16,0.72 -0.4,0.96 -0.24,0.25 -0.59,0.4 -0.96,0.4l-20.06 0c-0.37,0 -0.72,-0.15 -0.96,-0.4 -0.24,-0.24 -0.4,-0.58 -0.4,-0.96l0 -27.38c0,-0.38 0.16,-0.72 0.4,-0.96 0.24,-0.25 0.59,-0.4 0.96,-0.4l0 0zm12.39 1l-12.39 0c-0.1,0 -0.19,0.04 -0.25,0.11 -0.06,0.06 -0.1,0.15 -0.1,0.25l0 27.38c0,0.1 0.04,0.19 0.1,0.25 0.06,0.07 0.15,0.11 0.25,0.11l20.06 0c0.1,0 0.19,-0.04 0.25,-0.11 0.06,-0.06 0.1,-0.15 0.1,-0.25l0 -19.71 -8.02 -8.03 0 0z"/> <polygon fill="#ffffff" points="17.37,22.79 32.63,22.79 32.63,23.79 17.37,23.79 "/> <polygon fill="#ffffff" points="17.37,25.79 32.63,25.79 32.63,26.79 17.37,26.79 "/> <polygon fill="#ffffff" points="17.37,19.79 23.9,19.79 23.9,20.79 17.37,20.79 "/> <polygon fill="#ffffff" points="17.37,16.79 23.9,16.79 23.9,17.8 17.37,17.8 "/><path fill="#ffffff" d="M28.07 10.45l0 6.61c0,0.33 0.14,0.63 0.36,0.85 0.22,0.22 0.52,0.36 0.85,0.36l6.61 0 0 1 -6.61 0c-0.61,0 -1.16,-0.25 -1.56,-0.65 -0.4,-0.4 -0.65,-0.95 -0.65,-1.56l0 -6.61 1 0z"/> <path fill="#ffffff" d="M17.43 35.12l0 -5.78 1.87 0c0.71,0 1.18,0.03 1.39,0.09 0.33,0.08 0.61,0.27 0.84,0.56 0.22,0.29 0.33,0.67 0.33,1.13 0,0.36 -0.06,0.65 -0.19,0.9 -0.13,0.24 -0.3,0.43 -0.49,0.57 -0.2,0.13 -0.41,0.22 -0.61,0.27 -0.28,0.06 -0.68,0.08 -1.21,0.08l-0.76 0 0 2.18 -1.17 0 0 0zm1.17 -4.8l0 1.64 0.64 0c0.46,0 0.76,-0.03 0.92,-0.09 0.15,-0.06 0.28,-0.15 0.36,-0.28 0.09,-0.13 0.14,-0.28 0.14,-0.45 0,-0.21 -0.07,-0.39 -0.19,-0.52 -0.12,-0.14 -0.28,-0.23 -0.47,-0.26 -0.14,-0.03 -0.42,-0.04 -0.84,-0.04l-0.56 0 0 0zm4.21 -0.98l2.14 0c0.48,0 0.85,0.04 1.1,0.11 0.34,0.1 0.63,0.28 0.87,0.53 0.24,0.26 0.43,0.57 0.55,0.94 0.13,0.37 0.19,0.83 0.19,1.37 0,0.47 -0.06,0.88 -0.18,1.23 -0.14,0.42 -0.35,0.76 -0.62,1.02 -0.2,0.2 -0.47,0.35 -0.82,0.46 -0.25,0.08 -0.6,0.12 -1.03,0.12l-2.2 0 0 -5.78 0 0zm1.17 0.98l0 3.83 0.87 0c0.33,0 0.57,-0.02 0.71,-0.06 0.19,-0.04 0.35,-0.12 0.47,-0.24 0.13,-0.11 0.23,-0.3 0.31,-0.55 0.08,-0.26 0.12,-0.62 0.12,-1.06 0,-0.45 -0.04,-0.79 -0.12,-1.03 -0.08,-0.24 -0.19,-0.43 -0.33,-0.56 -0.15,-0.14 -0.33,-0.23 -0.55,-0.28 -0.16,-0.03 -0.48,-0.05 -0.95,-0.05l-0.53 0 0 0zm4.68 4.8l0 -5.78 3.97 0 0 0.98 -2.8 0 0 1.37 2.41 0 0 0.98 -2.41 0 0 2.45 -1.17 0 0 0z"/></svg>