<?xml version="1.0" encoding="UTF-8"?><!DOCTYPE svg PUBLIC "-//W3C//DTD SVG 1.1//EN" "http://www.w3.org/Graphics/SVG/1.1/DTD/svg11.dtd"><svg xmlns="http://www.w3.org/2000/svg" xml:space="preserve" width="50" height="50" style="shape-rendering:geometricPrecision; text-rendering:geometricPrecision; image-rendering:optimizeQuality; fill-rule:evenodd; clip-rule:evenodd" viewBox="0 0 50 50" xmlns:xlink="http://www.w3.org/1999/xlink"><path fill="#ffffff" d="M20.53 35.78c-0.1,0.38 -0.49,0.6 -0.87,0.5 -0.37,-0.1 -0.6,-0.49 -0.5,-0.87l2.59 -9.48c-0.3,-1.18 -0.32,-2.52 0.02,-3.98 0.15,-0.65 0.55,-1.2 0.94,-1.46l0.05 -0.04c0.22,-0.13 0.44,-0.19 0.67,-0.18 0.31,0.02 0.56,0.17 0.74,0.46 0.18,0.31 0.23,0.8 0.05,1.52l-1 3.66c0.27,0.85 0.71,1.58 1.25,2.15 0.51,0.52 1.11,0.91 1.75,1.14 0.62,0.22 1.29,0.29 1.93,0.17 1.29,-0.23 2.54,-1.22 3.34,-3.19 0.62,-1.81 0.77,-3.41 0.56,-4.78 -0.21,-1.31 -0.74,-2.42 -1.5,-3.28 -0.77,-0.86 -1.76,-1.5 -2.87,-1.88 -1.2,-0.41 -2.53,-0.52 -3.87,-0.32 -1.37,0.22 -2.51,0.75 -3.41,1.47 -0.97,0.78 -1.67,1.8 -2.08,2.88 -0.42,1.09 -0.55,2.24 -0.39,3.3 0.13,0.86 0.46,1.66 0.98,2.31 0.25,0.3 0.2,0.75 -0.1,1 -0.31,0.24 -0.76,0.19 -1,-0.11 -0.69,-0.86 -1.11,-1.89 -1.28,-2.99 -0.2,-1.3 -0.04,-2.7 0.46,-4.01 0.5,-1.31 1.35,-2.54 2.52,-3.48 1.09,-0.88 2.46,-1.52 4.09,-1.77 1.56,-0.24 3.12,-0.1 4.54,0.38 1.34,0.46 2.54,1.23 3.47,2.28 0.94,1.06 1.59,2.41 1.84,4.01 0.24,1.58 0.08,3.41 -0.62,5.47l-0.01 0.04c-1.01,2.48 -2.67,3.75 -4.42,4.07 -0.9,0.16 -1.81,0.07 -2.66,-0.23 -0.84,-0.3 -1.63,-0.81 -2.29,-1.5 -0.29,-0.31 -0.56,-0.65 -0.8,-1.02l-2.12 7.76z"/></svg>