<?xml version="1.0" encoding="UTF-8"?><!DOCTYPE svg PUBLIC "-//W3C//DTD SVG 1.1//EN" "http://www.w3.org/Graphics/SVG/1.1/DTD/svg11.dtd"><svg xmlns="http://www.w3.org/2000/svg" xml:space="preserve" version="1.1" style="shape-rendering:geometricPrecision; text-rendering:geometricPrecision; image-rendering:optimizeQuality; fill-rule:evenodd; clip-rule:evenodd" viewBox="0 0 50 50" xmlns:xlink="http://www.w3.org/1999/xlink"><path fill="#00ccff" d="M17.46 34.5l-4.64 0c-0.31,0 -0.6,-0.13 -0.81,-0.34 -0.2,-0.2 -0.33,-0.49 -0.33,-0.8l0 -10.78c0,-0.32 0.13,-0.61 0.33,-0.81 0.21,-0.21 0.5,-0.34 0.81,-0.34l4.64 0 0 0.89 -4.64 0c-0.07,0 -0.13,0.03 -0.18,0.08 -0.04,0.04 -0.07,0.11 -0.07,0.18l0 10.78c0,0.06 0.03,0.13 0.07,0.17 0.05,0.05 0.11,0.08 0.18,0.08l4.64 0 0 0.89 0 0zm15.08 -13.07l4.64 0c0.31,0 0.6,0.13 0.81,0.34 0.2,0.2 0.33,0.49 0.33,0.81l0 10.78c0,0.31 -0.13,0.6 -0.33,0.81 -0.21,0.2 -0.5,0.33 -0.81,0.33l-4.64 0 0 -0.89 4.64 0c0.07,0 0.13,-0.03 0.18,-0.07 0.04,-0.05 0.07,-0.11 0.07,-0.18l0 -10.78c0,-0.07 -0.03,-0.14 -0.07,-0.18 -0.05,-0.05 -0.11,-0.08 -0.18,-0.08l-4.64 0 0 -0.89 0 0z"/> <path fill="#00ccff" d="M18.16 11.25l13.68 0c0.31,0 0.6,0.13 0.8,0.34 0.21,0.2 0.34,0.49 0.34,0.81l0 10.77c0,0.31 -0.13,0.6 -0.34,0.81 -0.2,0.2 -0.49,0.33 -0.8,0.33l-13.68 0c-0.31,0 -0.6,-0.13 -0.8,-0.33l-0.01 0c-0.2,-0.21 -0.33,-0.5 -0.33,-0.81l0 -10.77c0,-0.32 0.13,-0.61 0.33,-0.81 0.21,-0.21 0.5,-0.34 0.81,-0.34l0 0zm13.68 0.89l-13.68 0c-0.07,0 -0.13,0.03 -0.18,0.08 -0.04,0.04 -0.07,0.11 -0.07,0.17l0 10.78c0,0.07 0.03,0.13 0.07,0.18 0.05,0.04 0.11,0.07 0.18,0.07l13.68 0c0.06,0 0.13,-0.03 0.17,-0.07 0.05,-0.05 0.08,-0.11 0.08,-0.18l0 -10.78c0,-0.06 -0.03,-0.13 -0.08,-0.17 -0.04,-0.05 -0.11,-0.08 -0.17,-0.08l0 0z"/> <path fill="#00ccff" d="M18.16 29.36l13.68 0c0.15,0 0.3,0.03 0.43,0.09 0.15,0.06 0.27,0.14 0.38,0.25l0 0c0.1,0.11 0.19,0.23 0.24,0.37 0.06,0.14 0.09,0.29 0.09,0.44l0 7.09c0,0.32 -0.13,0.61 -0.33,0.81 -0.21,0.21 -0.5,0.34 -0.81,0.34l-13.68 0c-0.31,0 -0.6,-0.13 -0.81,-0.34 -0.2,-0.2 -0.33,-0.49 -0.33,-0.81l0 -7.09c0,-0.32 0.13,-0.61 0.33,-0.81 0.21,-0.21 0.5,-0.34 0.81,-0.34l0 0zm13.68 0.89l-13.68 0c-0.07,0 -0.13,0.03 -0.18,0.08 -0.04,0.04 -0.07,0.11 -0.07,0.18l0 7.09c0,0.07 0.03,0.14 0.07,0.18 0.05,0.05 0.11,0.08 0.18,0.08l13.68 0c0.07,0 0.13,-0.03 0.18,-0.08 0.04,-0.04 0.07,-0.11 0.07,-0.18l0 -7.09c0,-0.04 -0.01,-0.08 -0.02,-0.1 -0.01,-0.03 -0.03,-0.06 -0.05,-0.08l0 0c-0.03,-0.03 -0.06,-0.05 -0.08,-0.06 -0.03,-0.01 -0.06,-0.02 -0.1,-0.02z"/> <polygon fill="#00ccff" points="19.71,32.21 30.29,32.21 30.29,33.1 19.71,33.1 "/> <polygon fill="#00ccff" points="19.71,35.01 30.29,35.01 30.29,35.9 19.71,35.9 "/> <polygon fill="#00ccff" points="15.16,23.92 15.16,25.87 14.27,25.87 14.27,23.92 "/></svg>