<?xml version="1.0" encoding="UTF-8"?><!DOCTYPE svg PUBLIC "-//W3C//DTD SVG 1.1//EN" "http://www.w3.org/Graphics/SVG/1.1/DTD/svg11.dtd"><svg xmlns="http://www.w3.org/2000/svg" xml:space="preserve" style="shape-rendering:geometricPrecision; text-rendering:geometricPrecision; image-rendering:optimizeQuality; fill-rule:evenodd; clip-rule:evenodd" viewBox="0 0 50 50" xmlns:xlink="http://www.w3.org/1999/xlink"><path fill="#555555" d="M34.39 20.34l-0.21 0.04c-0.39,0.06 -0.75,-0.2 -0.82,-0.59 -0.05,-0.3 0.09,-0.58 0.33,-0.72 0.14,-0.09 0.28,-0.18 0.4,-0.28 -0.27,0.07 -0.54,0.13 -0.81,0.17 -0.24,0.04 -0.46,-0.05 -0.61,-0.2 -0.39,-0.39 -0.81,-0.7 -1.26,-0.9 -0.45,-0.2 -0.95,-0.3 -1.52,-0.3 -0.5,0 -0.97,0.09 -1.4,0.27l-0.03 0.02c-0.43,0.18 -0.83,0.46 -1.2,0.84 -0.38,0.38 -0.67,0.79 -0.85,1.22 -0.19,0.43 -0.28,0.9 -0.28,1.4 0,0.37 0.06,0.62 0.12,0.86l0.01 0.03c0.08,0.38 -0.16,0.77 -0.54,0.85 -0.07,0.02 -0.14,0.02 -0.21,0.02 -0.95,-0.04 -1.86,-0.19 -2.74,-0.43 -0.93,-0.26 -1.83,-0.62 -2.68,-1.07 -0.86,-0.43 -1.65,-0.92 -2.36,-1.49 -0.43,-0.34 -0.84,-0.71 -1.22,-1.12l-0.01 0.02c-0.09,0.31 -0.14,0.61 -0.14,0.92 0,0.7 0.14,1.31 0.41,1.83 0.27,0.52 0.68,0.95 1.2,1.29 0.33,0.22 0.43,0.66 0.22,0.99 -0.14,0.21 -0.37,0.33 -0.6,0.33 -0.38,0 -0.77,-0.05 -1.18,-0.14l-0.05 -0.02 0.07 0.24c0.15,0.4 0.37,0.77 0.64,1.11 0.33,0.36 0.67,0.66 1.03,0.87 0.34,0.2 0.72,0.34 1.15,0.4 0.39,0.05 0.66,0.41 0.61,0.8 -0.04,0.26 -0.21,0.47 -0.44,0.56 -0.22,0.09 -0.45,0.16 -0.65,0.2l-0.3 0.06 0.01 0c0.22,0.31 0.5,0.58 0.82,0.84 0.3,0.24 0.64,0.42 1,0.55l0.03 0.01c0.35,0.11 0.74,0.17 1.14,0.17 0.39,0 0.71,0.32 0.71,0.72 0,0.25 -0.13,0.47 -0.33,0.6 -0.9,0.66 -1.83,1.17 -2.81,1.52 -0.44,0.15 -0.89,0.28 -1.36,0.36l0.63 0.21c1.08,0.31 2.21,0.47 3.38,0.47 0.75,0 1.48,-0.05 2.18,-0.16 0.69,-0.12 1.38,-0.29 2.05,-0.54l0.03 -0.01c0.61,-0.24 1.2,-0.52 1.76,-0.83 0.56,-0.32 1.08,-0.66 1.56,-1.03 0.47,-0.44 0.92,-0.89 1.32,-1.34 0.4,-0.46 0.77,-0.93 1.09,-1.43l0.01 -0.01c0.34,-0.53 0.64,-1.07 0.9,-1.62 0.25,-0.55 0.47,-1.12 0.64,-1.68 0.15,-0.58 0.27,-1.15 0.36,-1.7 0.08,-0.55 0.13,-1.11 0.13,-1.69 0,-0.06 -0.01,-0.15 -0.03,-0.22l0 -0.04c-0.02,-0.12 -0.04,-0.23 -0.04,-0.33 0,-0.27 0.14,-0.5 0.36,-0.62l0.38 -0.28zm2.3 -2.93c-0.08,0.3 -0.2,0.58 -0.33,0.85 0.2,-0.08 0.44,-0.06 0.63,0.07 0.33,0.22 0.42,0.66 0.2,0.99 -0.33,0.5 -0.71,0.98 -1.13,1.42 -0.29,0.29 -0.6,0.57 -0.93,0.83 0.01,0.08 0.02,0.17 0.02,0.26 0,0.63 -0.06,1.26 -0.16,1.9 -0.1,0.63 -0.23,1.24 -0.38,1.84l-0.01 0.06c-0.2,0.62 -0.43,1.25 -0.72,1.86 -0.28,0.62 -0.62,1.23 -1.01,1.81 -0.35,0.55 -0.76,1.09 -1.22,1.6 -0.45,0.51 -0.93,0.99 -1.43,1.45l-0.04 0.04c-0.56,0.44 -1.15,0.83 -1.77,1.18 -0.61,0.34 -1.26,0.65 -1.95,0.92l-0.05 0.02c-0.75,0.27 -1.52,0.47 -2.31,0.6 -0.8,0.13 -1.6,0.19 -2.41,0.19 -1.3,0 -2.56,-0.18 -3.78,-0.54 -1.2,-0.35 -2.35,-0.87 -3.44,-1.57 -0.27,-0.15 -0.41,-0.47 -0.33,-0.79 0.09,-0.38 0.48,-0.61 0.86,-0.52 0.21,0.05 0.54,0.05 0.87,0.05 0.97,0 1.86,-0.15 2.7,-0.45 0.34,-0.12 0.67,-0.26 0.99,-0.43 -0.41,-0.17 -0.79,-0.39 -1.15,-0.68 -0.42,-0.34 -0.78,-0.7 -1.08,-1.11 -0.29,-0.39 -0.52,-0.83 -0.7,-1.32 -0.03,-0.09 -0.06,-0.19 -0.06,-0.29 0,-0.18 0.07,-0.34 0.18,-0.46 -0.26,-0.21 -0.5,-0.44 -0.73,-0.7l-0.03 -0.03c-0.39,-0.47 -0.69,-1 -0.9,-1.55 -0.2,-0.55 -0.3,-1.13 -0.3,-1.73l0 -0.07c0,-0.11 0.02,-0.22 0.07,-0.32 0.13,-0.25 0.38,-0.4 0.65,-0.4 -0.38,-0.72 -0.58,-1.56 -0.58,-2.49 0,-0.44 0.07,-0.88 0.2,-1.33 0.13,-0.42 0.32,-0.85 0.58,-1.27 0.04,-0.08 0.1,-0.14 0.17,-0.2 0.31,-0.24 0.75,-0.19 1,0.12 0.52,0.66 1.1,1.24 1.74,1.75 0.64,0.51 1.34,0.95 2.11,1.33l0.02 0.01c0.76,0.4 1.56,0.72 2.4,0.95 0.5,0.14 1.03,0.25 1.56,0.31l-0.01 -0.26c0,-0.69 0.14,-1.34 0.4,-1.95 0.26,-0.61 0.64,-1.17 1.15,-1.68 0.51,-0.5 1.05,-0.88 1.64,-1.14l0.04 -0.02c0.61,-0.26 1.27,-0.39 1.96,-0.39 0.77,0 1.46,0.15 2.1,0.43 0.51,0.23 0.98,0.55 1.41,0.93 0.31,-0.07 0.63,-0.16 0.94,-0.27 0.44,-0.17 0.88,-0.38 1.3,-0.62 0.17,-0.1 0.37,-0.13 0.56,-0.07 0.38,0.1 0.6,0.5 0.49,0.88z"/></svg>